<svg width="343" height="188" viewBox="0 0 343 188" fill="none" xmlns="http://www.w3.org/2000/svg">
<path d="M140.977 98.1816L144.353 105.077L152.353 105.971L146.438 111.126L148.008 118.574L140.977 114.866L133.947 118.575L135.517 111.127L129.602 105.97L137.603 105.076L140.977 98.1816Z" stroke="#032449" stroke-width="1.48387" stroke-linejoin="round"/>
<path d="M-5.55672 27.0273L-2.33803 33.6027L5.29184 34.4559L-0.349165 39.3717L1.14819 46.4748L-5.55672 42.9379L-12.2616 46.4758L-10.7643 39.3727L-16.4053 34.4549L-8.77437 33.6017L-5.55672 27.0273Z" stroke="#032449" stroke-width="1.41508" stroke-linejoin="round"/>
<g clip-path="url(#clip0_1196_18103)">
<path d="M349.748 147.4L349.065 154.613L355.231 158.933L347.742 160.549L345.288 167.411L341.342 161.198L333.658 161.119L338.709 155.662L336.416 148.75L343.484 151.591L349.748 147.4Z" stroke="#032449" stroke-width="1.41508" stroke-linejoin="round"/>
</g>
<g clip-path="url(#clip1_1196_18103)">
<path d="M286.647 28.0041L293.135 31.8835L300.036 28.7006L298.125 35.714L303.47 40.9166L295.802 41.3719L292.204 47.7713L289.375 41.0381L281.806 39.7893L287.726 35.1723L286.647 28.0041Z" stroke="#032449" stroke-width="1.41508" stroke-linejoin="round"/>
</g>
<g clip-path="url(#clip2_1196_18103)">
<path d="M28.4332 147.576L34.9209 151.456L41.8223 148.273L39.9113 155.286L45.2564 160.489L37.588 160.944L33.9903 167.344L31.1613 160.61L23.5921 159.362L29.5126 154.745L28.4332 147.576Z" stroke="#032449" stroke-width="1.41508" stroke-linejoin="round"/>
</g>
<path d="M275.919 60.5273L280.167 69.7698L290.238 70.969L282.792 77.8789L284.769 87.8631L275.919 82.8916L267.069 87.8645L269.045 77.8802L261.6 70.9677L271.672 69.7684L275.919 60.5273Z" stroke="#2486F5" stroke-width="1.5" stroke-linejoin="round"/>
<path d="M65.9929 2.74805L70.2413 11.9905L80.3121 13.1897L72.8665 20.0996L74.8428 30.0838L65.9929 25.1123L57.1431 30.0852L59.1194 20.1009L51.6738 13.1884L61.7459 11.9891L65.9929 2.74805Z" stroke="#2486F5" stroke-width="1.5" stroke-linejoin="round"/>
<g clip-path="url(#clip3_1196_18103)">
<path d="M195.044 158.464L204.56 161.985L212.526 155.685L212.129 165.856L220.56 171.513L210.8 174.278L208.046 184.076L202.409 175.613L192.274 176.009L198.551 168.013L195.044 158.464Z" stroke="#2486F5" stroke-width="1.5" stroke-linejoin="round"/>
</g>
<path d="M56.7459 98.7031L60.9943 107.946L71.065 109.145L63.6194 116.055L65.5958 126.039L56.7459 121.067L47.896 126.04L49.8724 116.056L42.4268 109.143L52.4989 107.944L56.7459 98.7031Z" stroke="#2486F5" stroke-width="1.5" stroke-linejoin="round"/>
<path d="M30.5953 159.723L29.232 151.81L26.0002 150.783L28.3895 144.867L27.7553 136.32L30.5953 140.576L33.4353 136.318L32.8011 144.866L35.1904 150.784L31.9582 151.811L30.5953 159.723Z" stroke="#2486F5" stroke-width="1.5" stroke-linejoin="round"/>
<defs>
<clipPath id="clip0_1196_18103">
<rect width="24.5396" height="23.8183" fill="white" transform="matrix(0.879478 0.47594 -0.520278 0.853997 339.99 139.865)"/>
</clipPath>
<clipPath id="clip1_1196_18103">
<rect width="24.4745" height="23.8852" fill="white" transform="matrix(0.854339 -0.519717 0.565037 0.825065 275.068 32.7207)"/>
</clipPath>
<clipPath id="clip2_1196_18103">
<rect width="24.4745" height="23.8852" fill="white" transform="matrix(0.854339 -0.519717 0.565037 0.825065 16.8545 152.293)"/>
</clipPath>
<clipPath id="clip3_1196_18103">
<rect width="32.9089" height="32.9089" fill="white" transform="matrix(0.705804 -0.708407 0.705804 0.708407 181.495 168.178)"/>
</clipPath>
</defs>
</svg>
